<svg id="Capa_1" fill="#fff" enable-background="new 0 0 513 513" height="512" viewBox="0 0 513 513" width="512" xmlns="http://www.w3.org/2000/svg"><g><path d="m462.081 125.033-7.886-4.796 45.707-45.706c16.798-16.8 16.798-44.134-.001-60.932-16.799-16.799-44.133-16.798-60.932 0l-60.551 60.551-121.918-74.15-205.581 125.033c-26.928 16.377-46.049 44.338-50.419 75.173v312.794h512v-312.794c-4.37-30.835-23.491-58.796-50.419-75.173zm-15.59 25.631c17.872 10.87 30.296 28.88 34.469 49.045h-53.839v-52.398l5.24-5.24zm13.691-115.851c5.102-5.104 13.404-5.103 18.506-.001s5.102 13.403 0 18.506l-19.488 19.488-18.514-18.497zm-40.709 40.708 18.514 18.497-18.723 18.723-18.505-18.505zm-303.594 65.296h195.871l-44.75 44.75c-11.484 11.486-18.658 26.716-20.202 42.884l-4.034 42.285 42.285-4.034c16.168-1.544 31.397-8.718 42.884-20.203l69.189-69.189v131.967l-140.622 85.525-140.621-85.524zm190.84 84.468c-6.567 6.567-15.275 10.67-24.521 11.552l-6.121.585.585-6.121h-.001c.883-9.245 4.985-17.953 11.552-24.521l91.332-91.332 18.505 18.505zm49.865-129.302-14.834 14.834h-209.724l124.474-75.704zm-290.075 54.681 19.37-11.781v60.826h-53.839c4.173-20.165 16.597-38.175 34.469-49.045zm19.37 79.542v60.826l-19.37-11.781c-17.872-10.87-30.296-28.88-34.469-49.045zm-55.379 58.388c6.045 6.207 12.883 11.704 20.419 16.288l103.133 62.725-123.552 99.127zm27.666 194.406 123.155-98.809 75.179 45.724 73.175-44.505 124.402 97.59zm424.334-15.831-125.447-98.409 105.028-63.877c7.536-4.583 14.374-10.081 20.419-16.288zm-55.379-176.137v-60.826h53.839c-4.173 20.165-16.597 38.175-34.469 49.045z"/></g></svg>