<svg xmlns="http://www.w3.org/2000/svg" width="1025.187" height="193.134" viewBox="0 0 1025.187 193.134">
  <g id="Uniqode_Logo" data-name="Uniqode Logo" transform="translate(501.011 -318.537)">
    <g id="Group_30" data-name="Group 30" transform="translate(-501.011 318.537)">
      <g id="Group_29" data-name="Group 29">
        <path id="Path_265" data-name="Path 265" d="M-501.011,319.456h16.448v100.37q0,17.858.673,22.265a37.068,37.068,0,0,0,5.707,16.444q4.469,6.616,13.761,11.078a42.725,42.725,0,0,0,18.687,4.465,36.548,36.548,0,0,0,15.662-3.506,34.89,34.89,0,0,0,12.528-9.719,39.827,39.827,0,0,0,7.385-15.034q1.678-6.323,1.678-25.994V319.456h16.448v100.37q0,22.264-4.311,36t-17.226,23.907Q-426.5,489.895-444.844,489.9q-19.911,0-34.125-9.609a46.2,46.2,0,0,1-19.018-25.43q-3.022-9.72-3.024-35.039Z" transform="translate(501.011 -315.277)"/>
        <path id="Path_266" data-name="Path 266" d="M-468.117,485.72V319.456h3.583L-355,446.907V319.456h16.221V485.72h-3.693l-108.637-125.9v125.9Z" transform="translate(617.705 -315.277)"/>
        <path id="Path_267" data-name="Path 267" d="M-431.384,319.456h16.444V485.72h-16.444Z" transform="translate(748.018 -315.277)"/>
        <path id="Path_268" data-name="Path 268" d="M-293.578,318.537q37.388,0,62.579,25.2t25.194,62.052q0,36.508-25.134,61.938t-61.3,25.435q-36.611,0-61.8-25.321t-25.193-61.26a89.3,89.3,0,0,1,11.478-44.421,83.9,83.9,0,0,1,31.292-32.042A83.51,83.51,0,0,1-293.578,318.537Zm.728,16.162a67.274,67.274,0,0,0-34.63,9.614,68.8,68.8,0,0,0-25.548,25.9,72.605,72.605,0,0,0-9.191,36.308q0,29.645,20.337,50.06T-292.85,477a69.862,69.862,0,0,0,35.467-9.386,66.893,66.893,0,0,0,25.439-25.68,72.727,72.727,0,0,0,9.131-36.2,70.924,70.924,0,0,0-9.131-35.8,68.583,68.583,0,0,0-25.716-25.621A69.062,69.062,0,0,0-292.85,334.7Z" transform="translate(933.049 -318.537)"/>
        <path id="Path_269" data-name="Path 269" d="M-333.834,485.72V319.456h34.125q36.918,0,53.594,5.994a71.734,71.734,0,0,1,37.422,29.382q13.486,20.914,13.484,49.846,0,24.98-10.687,43.971t-27.745,28.027q-17.06,9.045-47.832,9.045Zm15.776-15.711h19.018q34.127,0,47.327-4.293a54.632,54.632,0,0,0,29.2-21.965q10.627-15.866,10.627-38.791,0-24.052-11.523-41.106t-32.111-23.379q-15.437-4.741-50.906-4.743h-11.637Z" transform="translate(1094.084 -315.277)"/>
        <path id="Path_270" data-name="Path 270" d="M-296.315,319.456H-202v16.276h-77.868v52.106h77.2v16.276h-77.2v65.331h77.2V485.72h-93.648Z" transform="translate(1227.185 -315.277)"/>
      </g>
      <path id="Path_271" data-name="Path 271" d="M-335.346,318.588a83.735,83.735,0,0,0-43,11.619,84.193,84.193,0,0,0-31.383,32.138,89.548,89.548,0,0,0-11.505,44.548q0,36.044,25.262,61.438a83.131,83.131,0,0,0,53.561,25.03v11.978h16.494v-11.96q31.037-2.564,53.393-25.162,25.206-25.5,25.207-62.12,0-36.951-25.266-62.229T-335.346,318.588Zm61.811,123.758a67.066,67.066,0,0,1-25.512,25.748,70.056,70.056,0,0,1-35.567,9.418q-28.772,0-49.173-20.478t-20.4-50.2a72.863,72.863,0,0,1,9.213-36.412,68.973,68.973,0,0,1,25.625-25.976,67.468,67.468,0,0,1,34.73-9.645,69.263,69.263,0,0,1,35.289,9.645,68.732,68.732,0,0,1,25.789,25.689,71.166,71.166,0,0,1,9.158,35.908A72.937,72.937,0,0,1-273.535,442.345Z" transform="translate(784.019 -318.356)"/>
    </g>
    <rect id="Rectangle_104" data-name="Rectangle 104" width="16.829" height="34.635" transform="translate(-59.696 477.036)" fill="#e83038"/>
  </g>
</svg>
